<?xml version="1.0"?>
<svg xmlns="http://www.w3.org/2000/svg" version="1.1" width="500px" height="500px" viewBox="0 0 200 200" style="overflow:hidden!important;">
  <defs id="SvgjsDefs1007">
    <radialGradient id="SvgjsRadialGradient2907" cx="100" cy="114" r="41" gradientUnits="userSpaceOnUse" class="svga-on-canvas-facehighlight-gradient-single-0">
      <stop id="SvgjsStop2908" stop-opacity="0.5" stop-color="#f8d3b8" offset="0"/>
      <stop id="SvgjsStop2909" stop-opacity="0" stop-color="#e9b995" offset="0.9"/>
    </radialGradient>
    <radialGradient id="SvgjsRadialGradient2911" cx="100" cy="54" r="37" gradientUnits="userSpaceOnUse" class="svga-on-canvas-facehighlight-gradient-single-1">
      <stop id="SvgjsStop2912" stop-opacity="0.5" stop-color="#f8d3b8" offset="0"/>
      <stop id="SvgjsStop2913" stop-opacity="0" stop-color="#e9b995" offset="0.9"/>
    </radialGradient>
    <linearGradient id="SvgjsLinearGradient4713" x1="100" y1="172" x2="100" y2="130" gradientUnits="userSpaceOnUse" class="svga-on-canvas-chinshadow-gradient-single-0">
      <stop id="SvgjsStop4714" stop-opacity="0.8" stop-color="#daa075" offset="0"/>
      <stop id="SvgjsStop4715" stop-opacity="1" stop-color="#bb7440" offset="0.7"/>
    </linearGradient>
    <linearGradient id="SvgjsLinearGradient4722" x1="100" y1="142" x2="100" y2="139" gradientUnits="userSpaceOnUse" class="svga-on-canvas-mouth-gradient-single-0">
      <stop id="SvgjsStop4723" stop-opacity="1" stop-color="#e1ac85" offset="0.1"/>
      <stop id="SvgjsStop4724" stop-opacity="1" stop-color="#daa075" offset="1"/>
    </linearGradient>
    <radialGradient id="SvgjsRadialGradient5309" cx="125.903" cy="85.096" r="13.25" gradientTransform="matrix(-1.0996 0.0423 0.0635 0.9207 206.5488 0.5932)" gradientUnits="userSpaceOnUse" class="svga-on-canvas-eyesback-gradient-left-0">
      <stop id="SvgjsStop5310" stop-opacity="1" stop-color="#ffffff" offset="0"/>
      <stop id="SvgjsStop5311" stop-opacity="1" stop-color="#fdfefe" offset="0.544"/>
      <stop id="SvgjsStop5312" stop-opacity="1" stop-color="#f6f8f9" offset="0.74"/>
      <stop id="SvgjsStop5313" stop-opacity="1" stop-color="#eaeff2" offset="0.879"/>
      <stop id="SvgjsStop5314" stop-opacity="1" stop-color="#d9e3e8" offset="0.992"/>
      <stop id="SvgjsStop5315" stop-opacity="1" stop-color="#d8e2e7" offset="1"/>
    </radialGradient>
    <radialGradient id="SvgjsRadialGradient5317" cx="125.541" cy="85.113" r="13.249" gradientTransform="matrix(1.0996 0.0423 -0.0635 0.9207 -6.5488 0.5932)" gradientUnits="userSpaceOnUse" class="svga-on-canvas-eyesback-gradient-right-0">
      <stop id="SvgjsStop5318" stop-opacity="1" stop-color="#ffffff" offset="0"/>
      <stop id="SvgjsStop5319" stop-opacity="1" stop-color="#fdfefe" offset="0.544"/>
      <stop id="SvgjsStop5320" stop-opacity="1" stop-color="#f6f8f9" offset="0.74"/>
      <stop id="SvgjsStop5321" stop-opacity="1" stop-color="#eaeff2" offset="0.879"/>
      <stop id="SvgjsStop5322" stop-opacity="1" stop-color="#d9e3e8" offset="0.992"/>
      <stop id="SvgjsStop5323" stop-opacity="1" stop-color="#d8e2e7" offset="1"/>
    </radialGradient>
    <radialGradient id="SvgjsRadialGradient5325" cx="125.903" cy="85.096" r="13.25" gradientTransform="matrix(-1.0996 0.0423 0.0635 0.9207 206.5488 0.5932)" gradientUnits="userSpaceOnUse" class="svga-on-canvas-eyesfront-gradient-left-0">
      <stop id="SvgjsStop5326" stop-opacity="1" stop-color="#ffffff" offset="0"/>
      <stop id="SvgjsStop5327" stop-opacity="1" stop-color="#fdfefe" offset="0.544"/>
      <stop id="SvgjsStop5328" stop-opacity="1" stop-color="#f6f8f9" offset="0.74"/>
      <stop id="SvgjsStop5329" stop-opacity="1" stop-color="#eaeff2" offset="0.879"/>
      <stop id="SvgjsStop5330" stop-opacity="1" stop-color="#d9e3e8" offset="0.992"/>
      <stop id="SvgjsStop5331" stop-opacity="1" stop-color="#d8e2e7" offset="1"/>
    </radialGradient>
    <radialGradient id="SvgjsRadialGradient5335" cx="123.371" cy="81.442" fx="136.805" fy="80.36" r="17.038" gradientTransform="matrix(0.9884 0.1367 0.1336 -0.7354 -56.0677 125.3)" gradientUnits="userSpaceOnUse" class="svga-on-canvas-eyesfront-gradient-left-3">
      <stop id="SvgjsStop5336" stop-opacity="1" stop-color="#daa075" offset="0"/>
      <stop id="SvgjsStop5337" stop-opacity="0.3" stop-color="#daa075" offset="0.7"/>
      <stop id="SvgjsStop5338" stop-opacity="0" stop-color="#e9b995" offset="1"/>
    </radialGradient>
    <radialGradient id="SvgjsRadialGradient5340" cx="78.965" cy="81.143" r="26.237" gradientTransform="matrix(0.7183 -0.06 0.0803 0.6143 8.7915 49.2595)" gradientUnits="userSpaceOnUse" class="svga-on-canvas-eyesfront-gradient-left-4">
      <stop id="SvgjsStop5341" stop-opacity="0" stop-color="#000000" offset="0.95"/>
      <stop id="SvgjsStop5342" stop-opacity="0.2" stop-color="#000000" offset="1"/>
    </radialGradient>
    <radialGradient id="SvgjsRadialGradient5346" cx="125.541" cy="85.113" r="13.249" gradientTransform="matrix(1.0996 0.0423 -0.0635 0.9207 -6.5488 0.5932)" gradientUnits="userSpaceOnUse" class="svga-on-canvas-eyesfront-gradient-right-0">
      <stop id="SvgjsStop5347" stop-opacity="1" stop-color="#ffffff" offset="0"/>
      <stop id="SvgjsStop5348" stop-opacity="1" stop-color="#fdfefe" offset="0.544"/>
      <stop id="SvgjsStop5349" stop-opacity="1" stop-color="#f6f8f9" offset="0.74"/>
      <stop id="SvgjsStop5350" stop-opacity="1" stop-color="#eaeff2" offset="0.879"/>
      <stop id="SvgjsStop5351" stop-opacity="1" stop-color="#d9e3e8" offset="0.992"/>
      <stop id="SvgjsStop5352" stop-opacity="1" stop-color="#d8e2e7" offset="1"/>
    </radialGradient>
    <radialGradient id="SvgjsRadialGradient5356" cx="122.972" cy="81.425" fx="136.406" fy="80.344" r="17.037" gradientTransform="matrix(-0.9884 0.1367 -0.1336 -0.7354 255.271 125.3424)" gradientUnits="userSpaceOnUse" class="svga-on-canvas-eyesfront-gradient-right-3">
      <stop id="SvgjsStop5357" stop-opacity="1" stop-color="#daa075" offset="0"/>
      <stop id="SvgjsStop5358" stop-opacity="0.3" stop-color="#daa075" offset="0.7"/>
      <stop id="SvgjsStop5359" stop-opacity="0" stop-color="#e9b995" offset="1"/>
    </radialGradient>
    <radialGradient id="SvgjsRadialGradient5361" cx="79.515" cy="81.186" r="26.237" gradientTransform="matrix(-0.7183 -0.06 -0.0803 0.6143 191.2076 49.2665)" gradientUnits="userSpaceOnUse" class="svga-on-canvas-eyesfront-gradient-right-4">
      <stop id="SvgjsStop5362" stop-opacity="0" stop-color="#000000" offset="0.95"/>
      <stop id="SvgjsStop5363" stop-opacity="0.2" stop-color="#000000" offset="1"/>
    </radialGradient>
    <radialGradient id="SvgjsRadialGradient5488" cx="-582.838" cy="-519.099" r="59.745" gradientTransform="matrix(0.0991 8.856319e-004 -0.0011 0.0991 131.1134 135.9855)" gradientUnits="userSpaceOnUse" class="svga-on-canvas-eyesiris-gradient-left-2">
      <stop id="SvgjsStop5489" stop-opacity="1" stop-color="#ffffff" offset="0"/>
      <stop id="SvgjsStop5490" stop-opacity="0" stop-color="#ffffff" offset="1"/>
    </radialGradient>
    <linearGradient id="SvgjsLinearGradient5494" x1="122.67" y1="88.268" x2="123.606" y2="87.152" gradientTransform="matrix(1 0 0 1 -52 0)" gradientUnits="userSpaceOnUse" class="svga-on-canvas-eyesiris-gradient-left-5">
      <stop id="SvgjsStop5495" stop-opacity="1" stop-color="#ffffff" offset="0"/>
      <stop id="SvgjsStop5496" stop-opacity="0" stop-color="#ffffff" offset="1"/>
    </linearGradient>
    <linearGradient id="SvgjsLinearGradient5502" x1="129.636" y1="79.822" x2="127.91" y2="81.879" gradientTransform="matrix(1 0 0 1 -52 0)" gradientUnits="userSpaceOnUse" class="svga-on-canvas-eyesiris-gradient-left-7">
      <stop id="SvgjsStop5503" stop-opacity="1" stop-color="#ffffff" offset="0"/>
      <stop id="SvgjsStop5504" stop-opacity="0" stop-color="#ffffff" offset="1"/>
    </linearGradient>
    <radialGradient id="SvgjsRadialGradient5511" cx="-582.833" cy="-519.102" r="59.747" gradientTransform="matrix(0.0991 8.856319e-004 -0.0011 0.0991 183.1126 135.9856)" gradientUnits="userSpaceOnUse" class="svga-on-canvas-eyesiris-gradient-right-2">
      <stop id="SvgjsStop5512" stop-opacity="1" stop-color="#ffffff" offset="0"/>
      <stop id="SvgjsStop5513" stop-opacity="0" stop-color="#ffffff" offset="1"/>
    </radialGradient>
    <linearGradient id="SvgjsLinearGradient5517" x1="122.67" y1="88.268" x2="123.606" y2="87.152" gradientUnits="userSpaceOnUse" class="svga-on-canvas-eyesiris-gradient-right-5">
      <stop id="SvgjsStop5518" stop-opacity="1" stop-color="#ffffff" offset="0"/>
      <stop id="SvgjsStop5519" stop-opacity="0" stop-color="#ffffff" offset="1"/>
    </linearGradient>
    <linearGradient id="SvgjsLinearGradient5525" x1="129.636" y1="79.822" x2="127.91" y2="81.879" gradientUnits="userSpaceOnUse" class="svga-on-canvas-eyesiris-gradient-right-7">
      <stop id="SvgjsStop5526" stop-opacity="1" stop-color="#ffffff" offset="0"/>
      <stop id="SvgjsStop5527" stop-opacity="0" stop-color="#ffffff" offset="1"/>
    </linearGradient>
    <linearGradient id="SvgjsLinearGradient5580" x1="127.637" y1="79.822" x2="125.91" y2="81.88" gradientTransform="matrix(1 0 0 1 -50 0)" gradientUnits="userSpaceOnUse" class="svga-on-canvas-eyesiris-gradient-left-1">
      <stop id="SvgjsStop5581" stop-opacity="1" stop-color="#ffffff" offset="0"/>
      <stop id="SvgjsStop5582" stop-opacity="0" stop-color="#ffffff" offset="1"/>
    </linearGradient>
    <linearGradient id="SvgjsLinearGradient5585" x1="129.637" y1="79.823" x2="127.91" y2="81.881" gradientUnits="userSpaceOnUse" class="svga-on-canvas-eyesiris-gradient-right-1">
      <stop id="SvgjsStop5586" stop-opacity="1" stop-color="#ffffff" offset="0"/>
      <stop id="SvgjsStop5587" stop-opacity="0" stop-color="#ffffff" offset="1"/>
    </linearGradient>
    <linearGradient id="SvgjsLinearGradient5595" x1="132" y1="78" x2="126" y2="84" gradientTransform="matrix(1 0 0 1 -50 0)" gradientUnits="userSpaceOnUse" class="svga-on-canvas-eyesiris-gradient-left-6">
      <stop id="SvgjsStop5596" stop-opacity="1" stop-color="#ffffff" offset="0"/>
      <stop id="SvgjsStop5597" stop-opacity="0" stop-color="#ffffff" offset="1"/>
    </linearGradient>
    <linearGradient id="SvgjsLinearGradient5605" x1="132" y1="78" x2="126" y2="84" gradientUnits="userSpaceOnUse" class="svga-on-canvas-eyesiris-gradient-right-6">
      <stop id="SvgjsStop5606" stop-opacity="1" stop-color="#ffffff" offset="0"/>
      <stop id="SvgjsStop5607" stop-opacity="0" stop-color="#ffffff" offset="1"/>
    </linearGradient>
  </defs>
  <g id="svga-group-wrapper">
    <g id="svga-group-backs-single"/>
    <g id="svga-group-humanwrap-move" transform="matrix(1,0,0,1,0,6)">
      <g id="svga-group-humanwrap" transform="matrix(0.8499995000000001,0,0,0.8499995000000001,15.000123278194536,16.90400617941569)">
        <g id="svga-group-hair-back-move" transform="matrix(1,0,0,1,0,0)">
          <g id="svga-group-hair-back" transform="matrix(1,0,0,1,0,0)">
            <path id="SvgjsPath5716" d="M100.5,100.5h-1v-1h1V100.5z" fill="#3b3128" stroke-width="none" opacity="1"/>
          </g>
        </g>
        <g id="svga-group-humanbody-single">
          <path id="SvgjsPath2914" d="M195.417 199.778c-2.196-4.746-8.195-11.779-14.86-13.722 -8.239-2.403-26.837-5.308-33.733-6.923 -5.528-1.296-16.662-11.294-20.564-14.65 -0.7-0.6-1.273-1.839-1.287-2.76 -0.139-10.864 4.195-39.724 4.195-39.724H100 70.833c0 0 4.334 28.859 4.193 39.724 -0.011 0.921-0.587 2.16-1.285 2.76 -3.902 3.356-15.036 13.354-20.564 14.65 -6.897 1.615-25.495 4.619-33.733 7.022 -6.667 1.942-12.664 8.876-14.86 13.622 -3.708 8.008-4.584 22.5-4.584 35h100 100C200 222.278 199.123 207.786 195.417 199.778z" fill="#e9b995" stroke-width="none" opacity="1" stroke="none"/>
          <path id="SvgjsPath2915" d="M159.156 184.058c24.342 3.542 34.586 8.708 37.794 50.721H200c0-12.5-0.877-26.992-4.583-35 -2.196-4.746-8.195-11.779-14.86-13.722 -8.239-2.403-26.837-5.308-33.733-6.923 -5.528-1.296-18.242-12.069-21.643-16.35 3.36 4.704 12.791 15.605 21.054 18.46C150.188 182.61 153.48 183.232 159.156 184.058zM53.766 181.244c8.263-2.854 17.693-13.756 21.054-18.46 -3.4 4.28-16.114 15.054-21.643 16.35 -6.896 1.615-25.494 4.619-33.733 7.022 -6.665 1.942-12.664 8.876-14.86 13.622 -3.706 8.008-4.583 22.5-4.583 35h3.05c3.188-41.744 13.475-47.183 37.794-50.721C46.52 183.232 49.813 182.61 53.766 181.244z" fill="#f8d3b8" stroke-width="none" opacity="1" stroke="none"/>
          <path id="SvgjsPath2916" d="M95.646 197.62c0 0-5.074-1.609-7.083-2.379 -10.449-4.009-44.395-6.607-44.395-6.607s35.754 1.419 43.644 2.779c-0.458-4.767-3.017-20.004-3.017-20.004s5.149 16.815 6.409 21.057C91.878 194.734 95.646 197.62 95.646 197.62zM106.445 196.278c-0.089 0.073-0.191 0.168-0.302 0.268C106.256 196.461 106.358 196.372 106.445 196.278zM95.646 197.62c0 0 2.893 2.992 4.347 3.03 1.91 0.051 4.828-2.899 6.151-4.104 -1.265 0.957-4.159 1.391-5.31 1.436C99.504 198.033 95.646 197.62 95.646 197.62zM116.664 190.101c-1.545 0.248-4.386 0.789-4.386 0.789l2.287-14.89c-0.646 3.071-4.474 16.211-8.12 20.278 1.91-1.616 6.158-2.391 8.324-2.704 10.236-1.484 10.232-1.483 41.062-4.94C155.831 188.634 126.76 188.479 116.664 190.101z" fill="#daa075" stroke-width="none" opacity="1" stroke="none"/>
          <path id="SvgjsPath2917" d="M195.417 199.778c-2.196-4.746-8.195-11.779-14.86-13.722 -8.239-2.403-26.837-5.308-33.733-6.923 -5.528-1.296-16.662-11.294-20.564-14.65 -0.7-0.6-1.273-1.839-1.287-2.76 -0.139-10.864 4.195-39.724 4.195-39.724H100 70.833c0 0 4.334 28.859 4.193 39.724 -0.011 0.921-0.587 2.16-1.285 2.76 -3.902 3.356-15.036 13.354-20.564 14.65 -6.897 1.615-25.495 4.619-33.733 7.022 -6.667 1.942-12.664 8.876-14.86 13.622 -3.708 8.008-4.584 22.5-4.584 35h100 100C200 222.278 199.123 207.786 195.417 199.778z" fill="none" stroke="#bb7440" stroke-width="1.5" opacity="1"/>
        </g>
        <g id="svga-group-chinshadow-single">
          <path id="SvgjsPath4712" d="M75.464 163.188c5.276 4.256 10.716 8.678 24.538 8.678 13.815 0 19.256-4.418 24.531-8.672 -0.188-0.49-0.305-0.997-0.312-1.461 -0.088-6.889 1.573-20.711 2.835-30.131 -15.695-2.201-38.418-2.201-54.113 0 1.261 9.421 2.922 23.242 2.833 30.13C75.771 162.188 75.654 162.695 75.464 163.188z" fill="url(#SvgjsLinearGradient4713)" opacity="1"/>
        </g>
        <g id="svga-group-clothes-single">
          <path id="SvgjsPath5738" d="M42.77 235.757l1.323-60.852c0 0 10.194-2.487 16.635-6.313 17.496 21.953 69.451 17.333 78.336-0.62 1.489 0.525 2.721 1.197 4.262 1.713 5 3.386 9.213 4.494 9.213 4.494l0.935 61.685C139.188 236.052 42.77 235.757 42.77 235.757z" fill="#f5f4f5" stroke-width="none" opacity="1"/>
          <path id="SvgjsPath5739" d="M154.014 177.705c-4.236-0.719-7.611-1.697-9.452-3.544 -5.343 10.025-26.763 16.378-33.855 17.309 20.554-6.276 29.188-10.813 32.598-21.583 1.99 2.383 6.522 3.549 12.313 4.538L154.014 177.705zM52.67 174.381c1.454-0.312 2.18-1.234 3.623-1.593l-1.528-1.867c-3.114 2.234-8.971 3.305-15.9 4.424l0.188 3.738c3.956-0.79 7.817-1.788 11.429-3.323 7.483 8.485 19.168 12.659 31.06 14.387C66.624 186.562 58.07 180.511 52.67 174.381z" fill="#ffffff" stroke-width="none" opacity="1"/>
          <path id="SvgjsPath5740" d="M137.861 170.055c-5.929 11.361-50.74 24.595-76.009 0.866 -1.571 0.615-6.271 2.085-6.271 2.085 18.406 23.08 72.345 23.227 86.702-0.112C142.221 172.87 139.321 170.737 137.861 170.055z" fill="#dfdde2" stroke-width="none" opacity="1"/>
          <path id="SvgjsPath5741" d="M139.008 167.841c-10.087 18.575-62.578 21.204-78.239 0.625 -5.72 1.556-11.219 4.876-16.756 5.707l-1.243 61.584 110.703 0.107 -0.855-62.386c-3.369-0.707-6.501-2.737-9.254-3.894C141.842 168.945 140.55 168.37 139.008 167.841zM60.39 169.087c13.903 23.086 68.817 18.455 79.419 0.099 1.286 0.499 1.615 0.696 3.106 1.183 -10.982 21.208-65.306 27.967-87.525 1.147C55.546 171.476 58.823 169.629 60.39 169.087zM54.287 172.418c17.963 27.046 77.26 22.856 89.583-1.287 1.771 1.391 4.53 2.989 7.936 3.735l1.66 59.08 -110.377 0.016 1.904-58.299C47.777 174.264 52.247 173.232 54.287 172.418z" fill="#b8b6c9" stroke-width="none" opacity="1"/>
          <path id="SvgjsPath5742" d="M-4.529 235.566c-2.574-13.852-2.292-47.592 9.013-47.521 13.136-5.311 29.269-11.404 42.802-15.311 6.908-7.246 13.436-14.137 26.188-21.314 0.389 2.599 1.874 8.541 0.011 11.773 -1.355 2.352-5.783 5.576-9.554 8.368 -2.029 2.72-3.927 5.374-6.599 9.089 5.168 22.301 9.601 33.78 10.097 53.123 0 0-1.452 0.689 64.471 0.397 2.215-22.339 4.993-33.561 10.379-54.098 0 0-4.308-5.014-7.207-8.87 -2.054-1.997-8.36-7.532-8.84-8.651 -1.175-2.741-0.548-6.188 0.11-11.367 10.793 4.873 17 12.021 26.082 21.303 7.729 2.119 30.86 9.967 42.445 15.216 3.965-0.11 6.203 1.999 7.872 5.466 5.405 11.195 4.126 27.297 2.18 42.789C185.83 235.989 49.887 238.17-4.529 235.566z" fill="#152c5e" stroke-width="none" opacity="1"/>
          <path id="SvgjsPath5743" d="M73.875 154.081c0.16 1.07 0.304 2.085 0.411 3.041 -0.218 0.266-17.212 23.353-17.336 23.525C61.126 171.148 67.1 161.305 73.875 154.081zM126.053 154.081c-0.159 1.07-0.184 2.085-0.291 3.041 0.218 0.266 16.931 22.469 17.054 22.642C138.391 170.914 132.828 161.305 126.053 154.081zM165.008 185.154c-4.28 6.231-5.194 8.382-9.879 14.557 1.071 0 2.799 0.166 3.87 0.166C162.663 193.592 162.67 190.393 165.008 185.154zM169.394 230.379c3.793-8.9 6.934-16.711 10.739-25.624l-1.247-2.014C175.717 211.896 172.354 221.199 169.394 230.379zM41.048 199.877c1.071 0 2.799-0.166 3.871-0.166 -4.685-6.175-5.599-6.561-9.878-12.792C37.377 192.158 37.384 193.592 41.048 199.877zM21.161 202.741l-1.247 2.014c3.806 8.913 4.765 16.724 8.559 25.624C25.512 221.199 24.33 211.896 21.161 202.741z" fill="#0a1f4f" stroke-width="none" opacity="1"/>
          <path id="SvgjsPath5744" d="M65.638 169.283c1.181-1.646 5.237-7.272 8.601-12.561C75.227 162.179 73.413 165.416 65.638 169.283zM125.74 156.36c2.553 4.396 5.562 8.772 8.664 12.803C126 165.336 125.435 161.423 125.74 156.36z" fill="#01153f" stroke-width="none" opacity="1"/>
          <path id="SvgjsPath5745" d="M126.318 151.359c0.008-0.061 0.017-0.118 0.023-0.174 18.093 9.999 28.576 25.02 40.747 36.217 -0.448 0.721-1.228 1.193-1.687 1.905C152.656 179.609 146.599 164.946 126.318 151.359zM71.736 152.022c-15.034 8.213-36.242 33.357-38.318 35.269 0.448 0.724 0.691 0.577 1.15 1.288C47.314 178.882 50.793 169.283 71.736 152.022zM194.869 187.704c-1-0.799-24.646-10.039-42.59-14.969 33.698 16.299 45.587 18.545 51.471 24.321C203.367 196.057 202.586 187.489 194.869 187.704zM47.458 172.555c-13.524 3.914-30.839 10.098-42.975 15.491 -5.364 0.106-9.208 7.93-10.031 16.084C1.914 187.317-1.773 198.62 47.458 172.555z" fill="#233b6d" stroke-width="none" opacity="1"/>
          <path id="SvgjsPath5746" d="M206.6 210.062c-0.34-8.635-3.055-23.103-11.691-22.46 -0.714-0.61-20.822-9.767-42.285-15.611 -7.353-7.455-16.515-17.598-26.371-20.957 -0.711 6.428-1.477 10.622 0.216 12.714 2.241 2.439 4.93 4.879 7.568 6.522 4.616 6.136 8.139 9.778 8.139 9.778 -5.43 20.703-8.815 31.314-10.973 53.688H68.798c-2.157-22.373-5.543-32.984-10.973-53.688 0 0 3.522-3.643 8.139-9.778 2.639-1.644 5.327-4.083 7.568-6.522 1.692-2.092 0.927-6.286 0.216-12.714 -9.856 3.359-19.019 13.502-26.371 20.957 -21.463 5.845-41.571 15.001-42.285 15.611 -8.637-0.643-11.352 13.825-11.691 22.46 -0.411 10.487 1.435 24.938 1.585 25.938h210.029C205.165 234.999 207.011 220.549 206.6 210.062zM72.984 163.194c-2.258 2.233-3.658 3.181-6.473 5.282 4.829-6.271 4.341-5.433 7.708-11.229C74.37 159.739 73.433 162.751 72.984 163.194zM-3.172 234.028c-1.082-12.844-2.916-24.41 0.43-36.992 1.281-4.827 2.484-8.095 7.455-8.509 1.067 5.538 8.132 28.724 14.298 44.533 -6.226-24.192-5.311-18.81-8.219-28.452 -0.964-3.235-1.854-6.486-2.979-9.672 -0.783-2.214-1.65-4.387-2.262-6.653l40.433-14.865c-0.279 0.283-12.895 13.434-13.199 13.804 1.847 3.021 7.816 7.222 10.845 11.758 -12.436 1.174-18.508 3.173-23 3.84 0.331 0.919 9.061 25.353 9.976 27.656 -1.479-7.917-4.816-20.297-8.637-27.211 1.41-0.179 18.077-2.492 23.393-3.477 -1.476-2.854-8.043-8.437-11.559-12.619 20.646-18.162 25.422-27.402 39.593-35.454 0.15 1.509 0.443 3.011 0.55 4.519 -15.795 23.533-17.649 23.567-17.649 23.567 4.585 17.81 10.532 35.824 10.532 54.073L-3.172 234.028zM127.016 163.194c-0.448-0.443-1.386-3.455-1.235-5.947 3.367 5.797 2.879 4.958 7.708 11.229C130.674 166.375 129.273 165.428 127.016 163.194zM203.172 234.028l-70-0.154c0-18.249 5.947-36.264 10.532-54.073 0 0-1.854-0.034-17.649-23.567 0.106-1.508 0.399-3.01 0.55-4.519 14.171 8.052 18.946 17.292 39.593 35.454 -3.516 4.183-10.083 9.766-11.559 12.619 5.315 0.984 21.982 3.298 23.393 3.477 -3.82 6.914-7.157 19.294-8.637 27.211 0.915-2.304 9.645-26.737 9.976-27.656 -4.492-0.667-10.564-2.666-23-3.84 3.028-4.536 8.998-8.736 10.845-11.758 -0.305-0.37-12.92-13.521-13.199-13.804 0.001 0 40.433 14.865 40.433 14.865 -0.611 2.267-1.479 4.439-2.262 6.653 -1.125 3.186-2.015 6.437-2.979 9.672 -2.908 9.643-1.993 4.26-8.219 28.452 6.166-15.81 13.23-38.995 14.298-44.533 4.971 0.414 6.174 3.682 7.455 8.509C206.088 209.618 204.254 221.185 203.172 234.028z" fill="#000f30" stroke-width="none" opacity="1"/>
        </g>
        <g id="svga-group-head" transform="matrix(1,0,0,1,0,0)">
          <g id="svga-group-ears-left-move" transform="matrix(1,0,0,1,0,0)">
            <g id="svga-group-ears-left" transform="matrix(1,0,0,1,0,0)">
              <path id="SvgjsPath4744" d="M45.443 82.722c-1.469-2.433-6.648-7.545-10.31-6.61 -2.979 0.762-6.032 3.243-6.032 7.473 -0.001 6.553 1.496 9.338 2.501 12.311 0.856 2.53 3.915 7.167 5.761 8.964 2.273 2.208 5.957 9.35 6.404 10.079 0.705 1.154 1.877 2.988 4.043 3.057 3.29 0.104 7.085-2.105 7.323-3.488C56.42 107.009 49.263 89.052 45.443 82.722z" fill="#e9b995" stroke="#bb7440" stroke-width="1.5" opacity="1"/>
              <path id="SvgjsPath4745" d="M43.596 99.086c-0.142-0.558 0.007-1.495 0.152-2.4 0.131-0.826 0.255-1.605 0.18-2.157 -0.285-2.064-1.892-5.988-2.942-8.115 -1.208-2.446-4.117-5.528-6.568-6.322 -1.013-0.329-1.681 0.064-2.067 0.463 -0.284 0.293-0.347 0.637-0.254 0.678 0.093 0.041 0.304-0.244 0.61-0.513 0.25-0.22 0.617-0.408 1.122-0.369 -0.203 1.028-3.138 4.222-1.381 10.392 0.822 2.888 1.992 5.214 2.202 5.549 0.032 0.352 0.083 0.696 0.159 1.031 0.991 4.357 7.286 11.54 8.785 13.162 0.277 0.3 0.567 0.477 0.639 0.406 0.072-0.072-0.1-0.368-0.376-0.671 -1.48-1.611-7.734-8.777-8.69-12.981 -1.754-7.702 1.916-7.832 4.499-12.473 0.397 0.657 0.733 1.288 0.993 1.814 0.203 0.413 0.429 0.896 0.661 1.417 -0.458 0.729-5.059 6.055-3.889 10.317 0.433 1.572 3.779 3.598 5.073 4.153 0.712 0.306 0.979 0.763 1.289 1.291 0.359 0.613 0.767 2.796 1.95 3.298 0.241 0.103 0.458 0.146 0.651 0.146 0.334 0 0.587-0.128 0.774-0.28 0.019 0.267 0.018 0.612 0.008 0.93 -0.011 0.411 0.046 0.748 0.147 0.756s0.208-0.317 0.221-0.727c0.016-0.504 0.014-1.128-0.077-1.426 -0.265-0.88-1.076-1.871-1.934-2.921C44.688 102.503 43.815 99.947 43.596 99.086zM34.616 95.223c-2.322-6.84 0.993-12.744 1.514-13.684 0.908 0.787 2.662 1.841 3.314 2.87C36.33 89.804 34.811 86.051 34.616 95.223zM45.884 106.717c-1.072-0.455-1.431-2.555-1.778-3.147 -0.314-0.536-0.639-1.089-1.461-1.443 -0.179-0.077-0.376-0.194-0.578-0.328 -3.861-5.758 0.291-8.626 1.027-9.163 0.226 0.734 0.396 1.407 0.47 1.946 0.068 0.496-0.058 1.284-0.179 2.045 -0.15 0.944-0.306 1.92-0.145 2.553 0.24 0.941 1.14 3.529 2.01 4.594 0.772 0.945 1.564 1.919 1.835 2.713C46.97 106.645 46.604 107.022 45.884 106.717z" fill="#bb7440" stroke-width="none" opacity="1"/>
            </g>
          </g>
          <g id="svga-group-ears-right-move" transform="matrix(1,0,0,1,0,0)">
            <g id="svga-group-ears-right" transform="matrix(1,0,0,1,0,0)">
              <path id="SvgjsPath4746" d="M154.295 82.722c1.469-2.433 6.648-7.545 10.311-6.61 2.979 0.762 6.031 3.243 6.031 7.473 0.002 6.553-1.496 9.338-2.5 12.311 -0.857 2.53-3.916 7.167-5.762 8.964 -2.273 2.208-5.957 9.35-6.404 10.079 -0.705 1.154-1.877 2.988-4.043 3.057 -3.291 0.104-7.086-2.105-7.324-3.488C143.318 107.009 150.475 89.052 154.295 82.722z" fill="#e9b995" stroke="#bb7440" stroke-width="1.5" opacity="1"/>
              <path id="SvgjsPath4747" d="M154.205 103.536c-0.857 1.05-1.668 2.041-1.934 2.921 -0.09 0.298-0.092 0.922-0.076 1.426 0.014 0.409 0.119 0.734 0.221 0.727s0.158-0.345 0.146-0.756c-0.01-0.317-0.01-0.663 0.01-0.93 0.186 0.152 0.439 0.28 0.773 0.28 0.193 0 0.41-0.043 0.65-0.146 1.184-0.502 1.592-2.686 1.951-3.298 0.311-0.528 0.576-0.985 1.289-1.291 1.293-0.555 4.639-2.581 5.072-4.153 1.17-4.262-3.432-9.588-3.889-10.317 0.232-0.522 0.457-1.004 0.66-1.417 0.26-0.526 0.596-1.157 0.994-1.814 2.582 4.641 6.252 4.771 4.498 12.473 -0.957 4.204-7.209 11.37-8.689 12.981 -0.275 0.303-0.447 0.599-0.377 0.671 0.072 0.07 0.361-0.106 0.639-0.406 1.5-1.622 7.795-8.805 8.785-13.162 0.076-0.334 0.129-0.679 0.16-1.031 0.209-0.334 1.379-2.661 2.201-5.549 1.758-6.17-1.178-9.364-1.381-10.392 0.504-0.039 0.871 0.149 1.123 0.369 0.305 0.269 0.518 0.553 0.609 0.513 0.094-0.041 0.029-0.385-0.254-0.678 -0.387-0.399-1.055-0.792-2.068-0.463 -2.451 0.794-5.359 3.876-6.568 6.322 -1.049 2.126-2.656 6.05-2.941 8.115 -0.074 0.552 0.049 1.331 0.18 2.157 0.145 0.906 0.293 1.843 0.152 2.4C155.924 99.947 155.051 102.503 154.205 103.536zM160.295 84.409c0.652-1.029 2.406-2.083 3.313-2.87 0.521 0.939 3.836 6.843 1.516 13.684C164.928 86.051 163.408 89.804 160.295 84.409zM152.652 106.486c0.271-0.794 1.064-1.768 1.836-2.713 0.869-1.065 1.77-3.653 2.01-4.594 0.16-0.632 0.006-1.608-0.145-2.553 -0.121-0.761-0.248-1.55-0.18-2.045 0.074-0.539 0.244-1.212 0.471-1.946 0.734 0.537 4.887 3.405 1.025 9.163 -0.201 0.134-0.398 0.251-0.578 0.328 -0.822 0.354-1.146 0.908-1.461 1.443 -0.346 0.592-0.705 2.692-1.777 3.147C153.135 107.022 152.768 106.645 152.652 106.486z" fill="#bb7440" stroke-width="none" opacity="1"/>
            </g>
          </g>
          <g id="svga-group-faceshape-wrap" transform="matrix(1,0,0,1,0,0)">
            <g id="svga-group-faceshape-single">
              <path id="SvgjsPath4709" d="M100.002 0.867C66.384 0.92 39.082 28.536 39.134 62.56c0.008 5.403 0.704 10.643 2.002 15.634h0.001c0.012 0.054 11.542 38.591 14.02 51.25 1.382 7.06 9.063 15.656 16.531 20.849 6.967 4.845 11.263 11.574 28.313 11.574s21.346-6.729 28.313-11.574c7.468-5.192 15.149-13.789 16.531-20.849 2.479-12.658 14.009-51.196 14.02-51.25h0.002c1.298-4.992 1.994-10.231 2.002-15.634C160.923 28.536 133.62 0.92 100.002 0.867z" fill="#e9b995" stroke-width="none" opacity="1"/>
              <path id="SvgjsPath4710" d="M146.772 23.096c7.478 10.35 11.917 23.245 11.898 37.227 -0.009 5.403-0.679 10.643-1.93 15.634h-0.002c-0.011 0.054-11.124 38.591-13.512 51.25 -1.335 7.06-8.737 15.656-15.935 20.849 -6.718 4.845-10.854 11.575-27.291 11.575 -16.434 0-20.575-6.73-27.291-11.575 -7.197-5.192-14.602-13.789-15.931-20.849 -2.391-12.658-13.504-51.195-13.515-51.25h0c-1.252-4.992-1.922-10.231-1.931-15.634 -0.021-13.978 4.416-26.868 11.889-37.217 -8.812 10.697-14.112 24.45-14.089 39.453 0.008 5.403 0.704 10.643 2.002 15.634h0.001c0.012 0.054 11.542 38.591 14.02 51.25 1.382 7.06 9.063 15.656 16.531 20.849 6.967 4.845 11.263 11.574 28.313 11.574s21.346-6.729 28.313-11.574c7.468-5.192 15.149-13.789 16.531-20.849 2.479-12.658 14.009-51.196 14.02-51.25h0.002c1.298-4.992 1.994-10.231 2.002-15.634C160.894 47.552 155.589 33.795 146.772 23.096z" fill="#e1ac85" stroke-width="none" opacity="1"/>
              <path id="SvgjsPath4711" d="M100.002 0.867C66.384 0.92 39.082 28.536 39.134 62.56c0.008 5.403 0.704 10.643 2.002 15.634h0.001c0.012 0.054 11.542 38.591 14.02 51.25 1.382 7.06 9.063 15.656 16.531 20.849 6.967 4.845 11.263 11.574 28.313 11.574s21.346-6.729 28.313-11.574c7.468-5.192 15.149-13.789 16.531-20.849 2.479-12.658 14.009-51.196 14.02-51.25h0.002c1.298-4.992 1.994-10.231 2.002-15.634C160.923 28.536 133.62 0.92 100.002 0.867z" fill="none" stroke="#bb7440" stroke-width="1.5" opacity="1"/>
            </g>
          </g>
          <g id="svga-group-mouth-single-move" transform="matrix(1,0,0,1,0,0)">
            <g id="svga-group-mouth-single" transform="matrix(1,0,0,1,0,0)">
              <path id="SvgjsPath4721" d="M100.2 142.947c-2.832 0.144-3.644-2.753-3.644-2.753s3.931 0.565 6.991-0.353C103.548 139.842 102.692 142.822 100.2 142.947z" fill="url(#SvgjsLinearGradient4722)" opacity="1"/>
              <path id="SvgjsPath4725" d="M100.488 140.76c-1.984 0.1-3.765-0.077-3.877-0.089 -0.138-0.014-0.238-0.136-0.224-0.272 0.015-0.138 0.143-0.233 0.274-0.224 0.041 0.003 4.096 0.405 6.738-0.337 0.131-0.032 0.271 0.041 0.309 0.174s-0.04 0.27-0.173 0.308C102.601 140.582 101.517 140.708 100.488 140.76z" fill="#bb7440" stroke-width="none" opacity="1"/>
              <path id="SvgjsPath4726" d="M82.5 130.299c0 0 12.532 1.486 16.718 1.499 4.553 0.012 19.282-1.499 19.282-1.499 -4.258 3.534-8.943 6.932-19.555 6.999C89.453 137.359 87.021 133.912 82.5 130.299z" fill="#ffffff" stroke-width="none" opacity="1"/>
              <path id="SvgjsPath4727" d="M82.5 130.299c0 0 12.532 1.486 16.718 1.499 4.553 0.012 19.282-1.499 19.282-1.499 -4.258 3.534-8.943 6.932-19.555 6.999C89.453 137.359 87.021 133.912 82.5 130.299z" fill="none" stroke="#bb7440" stroke-width="0.75" opacity="1"/>
            </g>
          </g>
          <g id="svga-group-eyes-left-move" transform="matrix(1,0,0,1,0,0)">
            <g id="svga-group-eyes-left" transform="matrix(1,0,0,1,0,0)">
              <g id="svga-group-eyesback-left">
                <path id="SvgjsPath5308" d="M76.732 78.383c4.587 0.679 7.931 3.488 10.773 7.94 0.004 0.005 0.013 0.004 0.018 0.008 0.007 0.027 0.021 0.053 0.026 0.08 0.255 1.007-0.816 1.819-2.155 2.438 -4.771 0.609-9.359 1.489-14.194 0.87 -9.681-1.241-9.855-5.509-10.326-6.629 -0.252-1.101-0.325-1.417-0.311-2.473 2.332-1.366 4.043-1.647 5.854-2.005C68.541 78.194 73.268 77.868 76.732 78.383z" fill="url(#SvgjsRadialGradient5309)" opacity="1"/>
              </g>
              <g id="svga-group-eyesiriswrapper-left" transform="matrix(1,0,0,1,0.25,0)">
                <g id="svga-group-eyesiriscontrol-left" transform="matrix(1,0,0,1,0,0)">
                  <g id="svga-group-eyesiris-left" transform="matrix(1,0,0,1,0,0)">
                    <path id="SvgjsPath5608" d="M79.788 85.588c-0.869 3.192-4.162 5.073-7.361 4.196 -3.197-0.876-5.084-4.178-4.214-7.371 0.869-3.195 4.168-5.076 7.365-4.198C78.772 79.09 80.659 82.392 79.788 85.588z" fill="#4d3623" stroke="#1f1105" stroke-width="0.5" opacity="1"/>
                    <path id="SvgjsPath5609" d="M79.643 84.371c-0.441 3.545-3.072 5.392-5.952 5.199 -2.658-0.179-5.034-2.14-5.254-5.525 0.919-0.264 2.14 0.165 3.211 0.001 -0.003 0.039-0.017 0.074-0.018 0.113 -0.084 1.3 0.958 2.433 2.329 2.525 1.374 0.092 2.556-0.892 2.641-2.191 0.009-0.169-0.001-0.336-0.027-0.496C77.527 84.141 78.693 83.999 79.643 84.371z" fill="#5c4633" stroke-width="none" opacity="1"/>
                    <path id="SvgjsPath5610" d="M74.867 81.998c-1.319-0.377-2.667 0.376-3.007 1.691 -0.341 1.308 0.453 2.678 1.771 3.056 1.322 0.379 2.669-0.375 3.011-1.684C76.986 83.745 76.188 82.376 74.867 81.998z" fill="#000000" stroke-width="none" opacity="0.9"/>
                    <path id="SvgjsPath5611" d="M74.867 81.998c-1.319-0.377-2.667 0.376-3.007 1.691 -0.341 1.308 0.453 2.678 1.771 3.056 1.322 0.379 2.669-0.375 3.011-1.684C76.986 83.745 76.188 82.376 74.867 81.998z" fill="none" stroke="#1f1105" stroke-width="0.75" opacity="1"/>
                    <path id="SvgjsPath5612" d="M71.16 87.657c-0.125 0.437-0.806 0.251-0.681-0.188 0.121-0.423 0.446-0.683 0.653-1.055 0.221-0.398 0.831-0.042 0.609 0.356C71.571 87.078 71.257 87.314 71.16 87.657L71.16 87.657zM72.246 86.96c-0.188 0.219-0.434 1.03-0.54 1.295 -0.17 0.422 0.513 0.604 0.681 0.188 0.058-0.145 0.256-0.863 0.359-0.983C73.04 87.116 72.543 86.614 72.246 86.96L72.246 86.96zM73.716 89.048c0.369-0.425 0.332-0.912 0.324-1.441 -0.007-0.455-0.713-0.455-0.706 0 0.004 0.293 0.092 0.701-0.117 0.942C72.92 88.891 73.417 89.392 73.716 89.048L73.716 89.048zM74.437 87.519c0.005 0.438 0.06 0.865 0.189 1.285 0.134 0.434 0.815 0.249 0.681-0.188 -0.112-0.362-0.159-0.719-0.164-1.097C75.138 87.064 74.432 87.063 74.437 87.519L74.437 87.519z" fill="#ffffff" stroke-width="none" opacity="0.5"/>
                    <path id="SvgjsPath5613" d="M78.197 82.971c-0.695 0.417-1.74 0.042-2.333-0.839 -0.592-0.881-0.503-1.934 0.193-2.349 0.694-0.419 1.742-0.043 2.33 0.838C78.979 81.502 78.893 82.554 78.197 82.971z" fill="#ffffff" stroke-width="none" opacity="0.8"/>
                  </g>
                </g>
              </g>
              <g id="svga-group-eyesfront-left">
                <path id="SvgjsPath5333" d="M55.112 83.583c3.224 11.315 7.475 23.313 17.685 23.669s22.135-7.239 22.29-22.238c0.173-16.767-10.474-23.381-20.684-23.737S50.307 66.714 55.112 83.583zM60.875 83.09c-0.252-1.101-0.325-1.417-0.311-2.473 2.027-1.21 4.04-1.547 5.851-1.905 2.123-0.418 6.853-0.845 10.317-0.329 4.587 0.679 7.931 3.488 10.773 7.94 0.004 0.005 0.013 0.004 0.018 0.008 0.007 0.027 0.021 0.053 0.026 0.08 0.255 1.007-0.816 1.819-2.155 2.438 -4.771 0.609-9.359 1.489-14.194 0.87C61.519 88.478 61.345 84.21 60.875 83.09z" fill="#e9b995" stroke-width="none" opacity="1"/>
                <path id="SvgjsPath5334" d="M74.225 95.171c9.256 1.401 17.847-3.01 19.186-9.859 1.34-6.849-5.072-13.537-14.329-14.94 -9.258-1.399-17.845 3.012-19.185 9.862C58.557 87.082 64.967 93.766 74.225 95.171zM60.563 80.617c2.125-1.141 4.04-1.547 5.851-1.905 2.123-0.418 6.853-0.845 10.317-0.329 4.587 0.679 7.931 3.488 10.773 7.94 0.004 0.005 0.013 0.004 0.018 0.008 0.007 0.027 0.021 0.053 0.026 0.08 0.255 1.007-0.816 1.819-2.155 2.438 -4.771 0.609-9.359 1.489-14.194 0.87 -9.681-1.241-9.855-5.509-10.326-6.629C60.622 81.989 60.55 81.672 60.563 80.617z" fill="url(#SvgjsRadialGradient5335)" opacity="1"/>
                <path id="SvgjsPath5339" d="M60.875 83.09c-0.252-1.101-0.325-1.417-0.311-2.473 2.092-1.175 4.04-1.547 5.851-1.905 2.123-0.418 6.853-0.845 10.317-0.329 4.587 0.679 7.931 3.488 10.773 7.94 0.004 0.005 0.013 0.004 0.018 0.008 0.007 0.027 0.021 0.053 0.026 0.08 0.255 1.007-0.816 1.819-2.155 2.438 -4.771 0.609-9.359 1.489-14.194 0.87C61.519 88.478 61.345 84.21 60.875 83.09z" fill="url(#SvgjsRadialGradient5340)" opacity="1"/>
                <path id="SvgjsPath5343" d="M76.327 75.748c3.294 0.539 6.505 2.054 9.48 3.945 0.637 0.404 1.366 0.865 2.521 1.451 -0.828-0.188-1.594-0.617-2.309-1.011 0.736 0.698 1.422 1.529 1.982 2.334 -2.521-3.159-7.297-5.538-11.36-6.349 -3.902-0.779-10.989-0.264-16.251 2.042C65.208 75.449 72.237 75.08 76.327 75.748z" fill="#bb7440" stroke-width="none" opacity="1"/>
                <path id="SvgjsPath5344" d="M87.508 86.277c-2.847-4.34-6.193-7.082-10.781-7.747 -4.833-0.705-11.271-0.221-15.034 1.843 -0.308 0.169-1.607 1.249-1.401 0.117 0.874-1.167 4.322-2.523 5.993-2.928C85.03 73.019 88.582 87.854 87.508 86.277zM60.646 82.841c-0.716 2.063 0.861 6.654 10.145 7.503 6.595 0.602 15.767-1.75 14.634-1.613 -4.779 0.589-9.375 1.449-14.219 0.839C60.224 88.19 61.468 83.023 60.646 82.841z" fill="#2a150e" stroke-width="none" opacity="1"/>
              </g>
            </g>
          </g>
          <g id="svga-group-eyes-right-move" transform="matrix(1,0,0,1,0,0)">
            <g id="svga-group-eyes-right" transform="matrix(1,0,0,1,0,0)">
              <g id="svga-group-eyesback-right">
                <path id="SvgjsPath5316" d="M122.867 78.383c-4.586 0.679-7.931 3.488-10.773 7.94 -0.004 0.005-0.012 0.004-0.018 0.008 -0.006 0.027-0.02 0.053-0.025 0.08 -0.256 1.007 0.815 1.819 2.154 2.438 4.771 0.609 9.359 1.489 14.194 0.87 9.681-1.241 9.855-5.509 10.325-6.629 0.253-1.101 0.325-1.417 0.312-2.473 -2.331-1.366-4.043-1.647-5.854-2.005C131.059 78.194 126.332 77.868 122.867 78.383z" fill="url(#SvgjsRadialGradient5317)" opacity="1"/>
              </g>
              <g id="svga-group-eyesiriswrapper-right" transform="matrix(1,0,0,1,-0.25,0)">
                <g id="svga-group-eyesiriscontrol-right" transform="matrix(1,0,0,1,0,0)">
                  <g id="svga-group-eyesiris-right" transform="matrix(1,0,0,1,0,0)">
                    <path id="SvgjsPath5614" d="M131.788 85.588c-0.869 3.192-4.162 5.073-7.362 4.196 -3.196-0.876-5.084-4.178-4.214-7.371 0.869-3.195 4.169-5.076 7.365-4.198C130.772 79.09 132.658 82.392 131.788 85.588z" fill="#4d3623" stroke="#1f1105" stroke-width="0.5" opacity="1"/>
                    <path id="SvgjsPath5615" d="M131.643 84.371c-0.44 3.545-3.072 5.392-5.951 5.199 -2.657-0.179-5.034-2.14-5.255-5.525 0.919-0.264 2.141 0.165 3.212 0.001 -0.004 0.039-0.017 0.074-0.019 0.113 -0.085 1.3 0.958 2.433 2.329 2.525 1.374 0.092 2.555-0.892 2.64-2.191 0.009-0.169-0.001-0.336-0.026-0.496C129.527 84.141 130.693 83.999 131.643 84.371z" fill="#5c4633" stroke-width="none" opacity="1"/>
                    <path id="SvgjsPath5616" d="M126.867 81.998c-1.319-0.377-2.666 0.376-3.007 1.691 -0.341 1.308 0.453 2.678 1.771 3.056 1.322 0.379 2.669-0.375 3.011-1.684C128.986 83.745 128.188 82.376 126.867 81.998z" fill="#000000" stroke-width="none" opacity="0.9"/>
                    <path id="SvgjsPath5617" d="M126.867 81.998c-1.319-0.377-2.666 0.376-3.007 1.691 -0.341 1.308 0.453 2.678 1.771 3.056 1.322 0.379 2.669-0.375 3.011-1.684C128.986 83.745 128.188 82.376 126.867 81.998z" fill="none" stroke="#1f1105" stroke-width="0.75" opacity="1"/>
                    <path id="SvgjsPath5618" d="M123.16 87.657c-0.125 0.437-0.806 0.251-0.682-0.188 0.121-0.423 0.447-0.683 0.654-1.055 0.22-0.398 0.83-0.042 0.609 0.356C123.571 87.078 123.257 87.314 123.16 87.657L123.16 87.657zM124.246 86.96c-0.188 0.219-0.434 1.03-0.54 1.295 -0.171 0.422 0.513 0.604 0.681 0.188 0.059-0.145 0.256-0.863 0.358-0.983C125.04 87.116 124.543 86.614 124.246 86.96L124.246 86.96zM125.716 89.048c0.369-0.425 0.332-0.912 0.324-1.441 -0.007-0.455-0.713-0.455-0.706 0 0.004 0.293 0.092 0.701-0.117 0.942C124.92 88.891 125.418 89.392 125.716 89.048L125.716 89.048zM126.438 87.519c0.005 0.438 0.059 0.865 0.188 1.285 0.135 0.434 0.815 0.249 0.681-0.188 -0.112-0.362-0.159-0.719-0.164-1.097C127.138 87.064 126.432 87.063 126.438 87.519L126.438 87.519z" fill="#ffffff" stroke-width="none" opacity="0.5"/>
                    <path id="SvgjsPath5619" d="M130.197 82.971c-0.695 0.417-1.74 0.042-2.333-0.839 -0.592-0.881-0.504-1.934 0.192-2.349 0.695-0.419 1.742-0.043 2.33 0.838C130.979 81.502 130.893 82.554 130.197 82.971z" fill="#ffffff" stroke-width="none" opacity="0.8"/>
                  </g>
                </g>
              </g>
              <g id="svga-group-eyesfront-right">
                <path id="SvgjsPath5354" d="M125.197 61.277c-10.211 0.356-20.857 6.97-20.685 23.737 0.154 15 12.079 22.595 22.29 22.238 10.21-0.356 16.187-17.323 17.685-23.669C148.517 66.512 135.407 60.921 125.197 61.277zM128.399 89.719c-4.835 0.619-9.423-0.261-14.194-0.87 -1.339-0.618-2.41-1.43-2.154-2.438 0.006-0.027 0.02-0.053 0.025-0.08 0.006-0.004 0.014-0.003 0.018-0.008 2.843-4.452 6.188-7.261 10.773-7.94 3.465-0.516 8.195-0.089 10.318 0.329 1.811 0.357 3.824 0.694 5.851 1.905 0.014 1.055-0.059 1.372-0.312 2.473C138.255 84.21 138.08 88.478 128.399 89.719z" fill="#e9b995" stroke-width="none" opacity="1"/>
                <path id="SvgjsPath5355" d="M139.703 80.234c-1.34-6.85-9.928-11.261-19.186-9.862 -9.257 1.403-15.669 8.091-14.328 14.94 1.339 6.849 9.93 11.26 19.186 9.859C134.633 93.766 141.043 87.082 139.703 80.234zM138.725 83.09c-0.47 1.121-0.645 5.388-10.325 6.629 -4.835 0.619-9.423-0.261-14.194-0.87 -1.339-0.618-2.41-1.43-2.154-2.438 0.006-0.027 0.02-0.053 0.025-0.08 0.006-0.004 0.014-0.003 0.018-0.008 2.843-4.452 6.188-7.261 10.773-7.94 3.465-0.516 8.195-0.089 10.318 0.329 1.811 0.357 3.727 0.764 5.851 1.905C139.05 81.672 138.978 81.989 138.725 83.09z" fill="url(#SvgjsRadialGradient5356)" opacity="1"/>
                <path id="SvgjsPath5360" d="M138.725 83.09c0.253-1.101 0.325-1.417 0.312-2.473 -2.092-1.175-4.04-1.547-5.851-1.905 -2.123-0.418-6.854-0.845-10.318-0.329 -4.586 0.679-7.931 3.488-10.773 7.94 -0.004 0.005-0.012 0.004-0.018 0.008 -0.006 0.027-0.02 0.053-0.025 0.08 -0.256 1.007 0.815 1.819 2.154 2.438 4.771 0.609 9.359 1.489 14.194 0.87C138.08 88.478 138.255 84.21 138.725 83.09z" fill="url(#SvgjsRadialGradient5361)" opacity="1"/>
                <path id="SvgjsPath5364" d="M123.273 75.748c-3.295 0.539-6.506 2.054-9.48 3.945 -0.637 0.404-1.367 0.865-2.521 1.451 0.828-0.188 1.594-0.617 2.309-1.011 -0.736 0.698-1.422 1.529-1.982 2.334 2.521-3.159 7.297-5.538 11.359-6.349 3.902-0.779 10.989-0.264 16.252 2.042C134.391 75.449 127.362 75.08 123.273 75.748z" fill="#bb7440" stroke-width="none" opacity="1"/>
                <path id="SvgjsPath5365" d="M133.314 77.563c1.672 0.405 5.119 1.761 5.994 2.928 0.205 1.132-1.094 0.052-1.402-0.117 -3.764-2.064-10.201-2.548-15.033-1.843 -4.588 0.665-7.936 3.407-10.781 7.747C111.018 87.854 114.57 73.019 133.314 77.563zM128.395 89.57c-4.844 0.61-9.439-0.25-14.219-0.839 -1.134-0.137 8.038 2.215 14.633 1.613 9.284-0.849 10.861-5.44 10.145-7.503C138.131 83.023 139.376 88.19 128.395 89.57z" fill="#2a150e" stroke-width="none" opacity="1"/>
              </g>
            </g>
          </g>
          <g id="svga-group-facehighlight-single">
            <path id="SvgjsPath2906" d="M141 113.974c0.035 22.622-18.292 40.994-40.938 41.025 -22.642 0.037-41.028-18.273-41.063-40.9 -0.035-22.62 18.292-41.064 40.937-41.1C122.579 72.964 140.967 91.349 141 113.974z" fill="url(#SvgjsRadialGradient2907)" opacity="1"/>
            <path id="SvgjsPath2910" d="M137.5 53.999c0 20.711-16.789 37.5-37.499 37.5 -20.711 0-37.501-16.789-37.501-37.5s16.79-37.5 37.501-37.5C120.711 16.499 137.5 33.288 137.5 53.999z" fill="url(#SvgjsRadialGradient2911)" opacity="1"/>
          </g>
          <g id="svga-group-eyebrows-left-move" transform="matrix(1,0,0,1,0,0)">
            <g id="svga-group-eyebrows-left-rotate" transform="matrix(1,0,0,1,0,0)">
              <g id="svga-group-eyebrows-left" transform="matrix(1,0,0,1,0,0)">
                <path id="SvgjsPath5622" d="M52.488 73.87c7.475-9.383 20.338-7.822 30.878-6.314 2.681 0.384 5.441 0.672 8.07 1.336 1.884 0.475 3.365 2.622 1.851 4.356 -0.708 0.825-2.253 0.672-3.207 0.652C77.459 73.645 63.193 66.387 52.488 73.87z" fill="#2a232b" stroke-width="none" opacity="1"/>
              </g>
            </g>
          </g>
          <g id="svga-group-eyebrows-right-move" transform="matrix(1,0,0,1,0,0)">
            <g id="svga-group-eyebrows-right-rotate" transform="matrix(1,0,0,1,0,0)">
              <g id="svga-group-eyebrows-right" transform="matrix(1,0,0,1,0,0)">
                <path id="SvgjsPath5623" d="M147.577 73.49c-2.164-1.448-4.454-2.47-7.043-2.889 -9.497-1.54-27.586 4.79-32.341 3.45 -2.912-0.822-2.323-3.739-1.035-4.458 0.775-0.433 0.99-0.422 7.909-1.612C126.824 65.961 139.988 64.355 147.577 73.49z" fill="#2a232b" stroke-width="none" opacity="1"/>
              </g>
            </g>
          </g>
          <g id="svga-group-nose-single-move" transform="matrix(1,0,0,1,0,0)">
            <g id="svga-group-nose-single" transform="matrix(1,0,0,1,0,0)">
              <path id="SvgjsPath4734" d="M99.084 89.999c0 0-0.887 20.454-0.765 24.946 0.035 1.275 2.489 4.617 2.322 7.054 0 0-4.788-0.349-6.345-0.898 -1.629-0.578-4.151-1.704-3.154-4.85C92.562 111.776 99.084 89.999 99.084 89.999z" fill="#daa075" stroke-width="none" opacity="1"/>
              <path id="SvgjsPath4735" d="M98.638 119.598c0 0-1.985-0.705-3.239-0.669 -1.142 0.035-1.306-0.726-1.191-1.158 0.116-0.433 0.507-0.701 1.61-0.407C96.921 117.658 98.638 119.598 98.638 119.598zM101.593 119.6c0 0 1.98-0.653 3.239-0.667 1.142-0.014 1.308-0.726 1.191-1.157 -0.116-0.435-0.508-0.705-1.61-0.411C103.31 117.662 101.593 119.6 101.593 119.6z" fill="#bb7440" stroke-width="none" opacity="1"/>
            </g>
          </g>
          <g id="svga-group-beardwrap" transform="matrix(1,0,0,1,0,0)">
            <g id="svga-group-beard-single-move" transform="matrix(1,0,0,1,0,0)">
              <g id="svga-group-beard-single" transform="matrix(1,0,0,1,0,0)">
                <path id="SvgjsPath5730" d="M100,18.13L100,18.13L100,18.13L100,18.13z" fill="#3b3128" stroke-width="none" opacity="1"/>
              </g>
            </g>
          </g>
          <g id="svga-group-mustache-single-move" transform="matrix(1,0,0,1,0,0)">
            <g id="svga-group-mustache-single" transform="matrix(1,0,0,1,0,0)">
              <path id="SvgjsPath5724" d="M100,18.13L100,18.13L100,18.13L100,18.13z" fill="#2a232b" stroke-width="none" opacity="1"/>
            </g>
          </g>
          <g id="svga-group-hair-front" transform="matrix(1,0,0,1,0,0)">
            <path id="SvgjsPath5718" d="M152.176 96.021c-4.33-11.451-2.396-20.042-3.227-37.21 -1.283-26.428-7.483-23.179-21.749-24.214C105.156 33 97.497 22.794 81.063 22.794c-8.887 0-19.24 4.048-27.173 11.001 -6.378 43.485 2.638 39.87-6.744 61.845 -5.953-6.247-6.721-15.865-11.134-28.495 -3.519-10.451-2.658-11.011-6.527-16.049 2.484 0.449 2.734 0.429 3.842 0.429 -1.97-4.306-4.479-11.951-5.429-15.273 2.329-1.116 4.839-3.909 6.47-5.919 -0.931-2.128-1.646-4.554-2.079-6.625 0.077-0.026 0.438-0.16 0.438-0.16l0.004-0.017c5.681-2.417 6.84-15.944 10.785-19.389 1.941-1.814 3.806-2.531 5.534-3.446 0.204-1.895 0.295-2.277 0.575-3.63 9.402-2.521 12.254-1.199 25.53-4.893 4.564-1.27 7.709-2.153 17.317-1.75 3.525 1.779 16.06 10.479 25.484 1.602 7.254 4.527 13.574 5.105 22.624 10.252 15.179 8.89 17.244 15.147 16.352 29.56 10.493 13.965 8.167 30.567 3.577 47.23C157.639 89.383 154.886 92.761 152.176 96.021z" fill="#3b3128" stroke-width="none" opacity="1"/>
            <path id="SvgjsPath5719" d="M152 82c-1-8 3-15 4-22 -1 2-3 3-3 5 0-7 3-13 2-20 -1 2-2 3-4 4 3-7 0-15-5-21 1 3 2 5 2 8 -6-9-20-10-30-15 2 3 6 5 9 7 -14-5-27-11-40-17 2.206 2.206 3.875 6.024 6.589 7.499 1.143 0.163 0.978 0.531 0 0C81.581 16.79 68.958 15.479 58 10c0 4 3 7 6 9 -3 0-6-3-8-2 -3 2 3 4 2 6 -3 2-6-1-9-1 2 3 0 8 2 11 -2-1-4-3-4-2 -1 4-3 5-3 8 0 5 3 10 3 15 0-1.608-1.938-1.279-2.697-2.127 5.009 13.975 4.782 28.692 2.606 43.497 0.082 0.089 0.154 0.184 0.237 0.271 9.382-21.975 0.366-18.36 6.744-61.845 7.933-6.953 18.286-11.001 27.173-11.001 16.435 0 24.094 10.207 46.138 11.802 14.266 1.036 20.466-2.214 21.749 24.214 0.83 17.168-1.104 25.759 3.227 37.21 0.005-0.005 0.009-0.011 0.014-0.016C152.841 88.595 155 81.796 155 75 154 77 153 79 152 82z" fill="#1c150e" stroke-width="none" opacity="1"/>
            <path id="SvgjsPath5720" d="M159.263 71.488C158.954 72.145 157 72.343 157 73c0-3 3.516-5.243 2.924-10.264 0 0.396-3.158 2.95-3.475 3.346 -0.206 1 4.288-10.681 4.288-14.542C159.263 53.999 158 54 158 56c0-4-0.006-9.854-0.006-13.854 0 2-1.994 4.949-1.994 6.949 0.933-7.464-3.404-16.095-4.28-23.501 -0.511 1.795-1.479 3.889-0.72 5.406 -3-4-2-11-7-14 -1 2-1 4-2 6 -3-4-7-7-9-11 0 2 0 3 0 5 -5-4-12-6-15-12 0 2 0 5 0 7 -4-1-10.495-4.596-12.495-7.596C105.505 7.404 109 12 109 15c-8-4-14-10-22-14 0 2 2 4 1 6 -4-2-11.771-2-13.771-6 0 3 3.11 6 3.11 9 -9-1-11.009-3.822-19.242-7.596C57.097 4.404 56 7 55 9c-2-2-3-4-6-4 0 3 3 7 1 10 -1 1-5-3-5-2 -2 4 0 10-2 14 0 1-3-2-5-1 3.872 5.807 1.202 12.548 3.745 18.416C41.843 44.598 41.93 44.79 42 45c-0.096-0.193-0.17-0.389-0.255-0.584C40.452 41.988 36.93 41.79 36 39c0 7.303 4.157 13.774 5.645 20.932C42.15 60.233 42.404 60.788 42 62c-0.087-0.697-0.214-1.385-0.355-2.068C40.897 59.486 39.596 59.596 39 59c4.728 9.455 6.191 25.673 7.909 36.369 3.545-15.374 1.709-31.456-2.606-43.497C44.118 51.666 44 51.392 44 51c0.109 0.29 0.198 0.582 0.303 0.873C45.063 52.721 47 52.392 47 54c0-5-3-10-3-15 0-3 2-4 3-8 0-1 2 1 4 2 -2-3 0-8-2-11 3 0 6 3 9 1 1-2-5-4-2-6 2-1 5 2 8 2 -3-2-6-5-6-9 10.958 5.479 23.581 6.79 35.589 8.499C90.875 17.024 89.206 13.206 87 11c13 6 26 12 40 17 -3-2-7-4-9-7 10 5 24 6 30 15 0-3-1-5-2-8 5 6 8 14 5 21 2-1 3-2 4-4 1 7-2 13-2 20 0-2 2-3 3-5 -1 7-5 14-4 22 1-3 2-5 3-7 0 6.796-2.159 13.595-2.811 21.004 0.814-0.979 1.633-1.975 2.457-3.163C154.545 85.429 157.479 79.338 159.263 71.488z" fill="#2c2219" stroke-width="none" opacity="1"/>
            <path id="SvgjsPath5721" d="M93.119 18.235c-1.128 0.089-2.468 0.279-4.94-0.096 -6.698-0.927-28.617-1.793-29.81-8.654 1.055 3.353 7.405 4.299 12.204 5.198 0 0 3.382 0.651 8.723 1.251C89.291 17.101 87.179 17.888 93.119 18.235zM115.897 23.746C92 13.389 93.7 14.531 88.119 10.985c7.333 6.156 9.839 6.172 22.619 12.018 5.921 2.667 7.078 2.561 15.131 4.482C120.224 25.241 119.559 25.287 115.897 23.746zM118.619 20.735c9.914 8.153 22.008 6.125 29.75 15C142.164 25.918 128.518 26.908 118.619 20.735zM59.905 17.331c-2.668-0.805-3.997-0.43-5.286 0.404 4.225-1.989 8.651 2.923 13.75 1.5C66.006 19.523 59.905 17.53 59.905 17.331zM57.051 23.932c-2.328-0.734-5.203-1.979-7.151-1.927 -1.03 0.024-1.281 0.48-1.281 0.48 0.975-1.139 5.609 1.099 8.396 1.626 0.766 0.16 1.354 0.123 1.354 0.123S57.783 24.176 57.051 23.932zM45.652 35.678c0.687-1.892 1.461-3.751 1.256-5.482 -0.104-0.627-0.309-0.955-0.289-0.96 0.464 1.973-0.313 3.175-1.68 6.136 -3.015 6.453 0.924 11.484 2.43 18.364C46.86 45.866 43.166 42.389 45.652 35.678zM154.369 45.985c0.32 2.168 0.225 3.63-0.154 7.075 0 0-0.695 5.779-2.096 11.425C154.198 59.638 155.94 51.389 154.369 45.985zM155.869 61.485c-3.387 9.387-3.936 12.846-4.5 20.25C155.099 64.497 153.284 73.154 155.869 61.485z" fill="#3b3128" stroke-width="none" opacity="1"/>
            <path id="SvgjsPath5722" d="M114.869-1.765c-6.126 0.965-12.52 1.734-24-5.25C101.949-1.999 107.334-1.517 114.869-1.765zM128.401 0.19c-6.076-2.194-6.475-4.768-11.032-6.205 4.159 1.884 4.127 4.303 9.559 6.761 2.642 1.249 11.822 3.782 17.441 7.439C139.405 3.794 136.066 3.059 128.401 0.19zM60.619-2.015c11.593 0.241 13.441-2.719 26.75-4.25C75.403-6.414 74.136-3.561 60.619-2.015zM90.869-1.765c4.669 0.559 11.405 4.746 13.5 9.5C102.84 2.405 96.201-1.735 90.869-1.765zM116.869-0.265c4.652 2.475 6.308 7.699 12 8.75C123.284 6.637 122.178 1.803 116.869-0.265zM108.869 0.735c1.193 2.033 2.93 4.107 7.5 7C111.036 3.353 110.121 2.431 108.869 0.735zM132.119 5.485c5.115 0.627 10.451 5.663 11 11.25C143.375 11.229 138.428 5.581 132.119 5.485zM149.458 14.007c-2.307-2.946-4.339-3.642-5.339-4.022 1.428 0.741 2.997 1.725 4.866 4.386 0 0 3.437 4.57 4.884 9.614C152.871 17.907 149.458 14.007 149.458 14.007zM54.369-0.265c0.185-0.391 5.324 1.866 5.73 2.03 1.229 0.479 7.383 2.967 9.52 3.22C68.618 4.717 54.423-1.414 54.369-0.265zM45.869 5.985c0.682 0.896 1.458 2.263 2.01 3.245 0 0 0.296 0.523 0.571 1.059 0.27 0.537 0.51 1.086 0.51 1.086C49.634 12.912 49.955 13.861 50 15 50.252 12.019 47.702 7.872 45.869 5.985zM42.869 8.985c-2.517 6.149-2.489 9.708 0 16C41.306 18.681 40.986 15.697 42.869 8.985z" fill="#4a423a" stroke-width="none" opacity="1"/>
            <path id="SvgjsPath5723" d="M157.239 31.745c0.228-3.5 0.323-5.684 0.02-9.14 -1.138-10.129-7.217-15.136-16.529-20.59 -9.158-5.208-15.513-5.751-22.811-10.37 -9.334 9.042-21.935 0.184-25.37-1.52 -16.776-0.716-14.191 2.518-32.75 4.78 -6.844 0.773-9.67 1.72-9.67 1.72 -0.26 0.07-0.52 0.13-0.76 0.2 -0.2 1-0.381 1.616-0.6 3.68 -1.516 0.801-3.484 1.572-5.45 3.41 -4.048 3.536-5.212 17.195-10.83 19.39v0.01c-0.118 0.043-0.428 0.163-0.55 0.18 0.419 2.096 1.188 4.75 2.08 6.79 -1.594 1.959-4.17 4.807-6.48 5.8 0.546 1.98 3.313 10.751 5.32 15.14 -1.1 0-2.003-0.194-4.09-0.56 4.388 5.578 3.281 5.653 6.96 16.58 4.481 12.826 5.208 22.595 11.49 28.9 5.633-10.646 5.146-15.583 5.19-19.41 0.123-5.265-2.433-18.462 1.935-42.798 9.262-8.105 22.378-12.754 34.815-9.932 13.001 2.94 19.525 9.551 38.02 10.89 14.399 1.046 20.201-2.213 21.471 23.93 0.841 17.373-1.163 26.023 3.43 37.78 2.669-3.22 5.645-6.408 8.72-17.46C165.299 62.807 167.816 45.939 157.239 31.745zM161.02 70.726c-3.468 16.597-5.491 19.609-9.061 24.96 -2.882-8.88-2.093-17.47-1.8-26.59 1.486-39.246-8.424-34.825-22.86-35.92 -17.688-1.192-24.622-7.896-37.76-10.54 -11.972-2.45-25.25 0.755-36.35 11.16 -6.045 27.128 0.578 41.608-4.78 55.37 -1.162 2.943-0.429 3.694-1.28 5.84 -4.636-6.978-5.874-16.832-7.41-21.79 -4.784-12.176-4.632-16.171-9.84-21.97 1.271 0.277 2.91 0.457 4.21 0.24 -0.01-0.01-0.01-0.01-0.01-0.02 -0.332-1.001-4.524-12.47-5.75-15.33 2.387-1.152 4.729-3.746 6.35-5.83 -1.292-4.088 0.314 1.902-2.1-6.66 7.366-2.215 6.6-16.125 14.11-21.21 0.997-0.665 1.88-1.213 2.86-1.83 0.221-1.879 0.071-0.771 0.52-3.63 8.803-1.813 12.4-0.024 25.18-4.05 9.681-2.356 16.636-2.269 17.64-2.16 6.167 3.862 9.656 6.038 16.91 5.53 3.323-0.272 5.966-1.878 8.28-4.24 4.01 3.008 8.485 4.831 13.99 7.35 22.244 10.181 24.229 18.459 24.229 32.18 1.398 1.975 2.938 5.099 3.7 7.19C164.593 50.117 163.096 61.037 161.02 70.726z" fill="#0d0905" stroke-width="none" opacity="1"/>
          </g>
          <g id="svga-group-glasses-single-move" transform="matrix(1,0,0,1,0,3)">
            <g id="svga-group-glasses-single" transform="matrix(1,0,0,1,0,0)">
              <path id="SvgjsPath5628" d="M100,18.13L100,18.13L100,18.13L100,18.13z" fill="#000000" stroke-width="none" opacity="1"/>
            </g>
          </g>
        </g>
      </g>
    </g>
    <rect id="SvgjsRect1057" width="200" height="15" x="0" y="185" fill="#ecf0f1" opacity="0.5" style="display: none;"/>
    <text id="SvgjsText1058" font-family="Roboto, Helvetica, Arial, sans-serif" font-size="10px" text-anchor="start" font-weight="400" anchor="start" fill="#333333" x="38.73286437988281" y="182.58649802207947" style="display: none;">
      <tspan id="SvgjsTspan1059" dy="13" x="38.73286437988281">Created on svgAvatars.com</tspan>
    </text>
  </g>
</svg>
